<?xml version="1.0" encoding="utf-8"?>
<!-- Generator: Adobe Illustrator 26.0.0, SVG Export Plug-In . SVG Version: 6.00 Build 0)  -->
<svg version="1.1" xmlns="http://www.w3.org/2000/svg" xmlns:xlink="http://www.w3.org/1999/xlink" x="0px" y="0px"
	 viewBox="0 0 1004.2 104.2" style="enable-background:new 0 0 1004.2 104.2;" xml:space="preserve">
<style type="text/css">
	.st0{fill:#242938;}
	.st1{fill:#FFFFFF;}
	.st2{fill:#E14E1D;}
	.st3{fill:#EBEBEB;}
	.st4{fill:#ECEFF1;}
	.st5{fill:#263238;}
	.st6{fill:#212121;}
	.st7{fill:#FFC107;}
	.st8{fill:#634703;}
	.st9{fill:#455A64;}
	.st10{fill:none;stroke:#FFFFFF;stroke-width:1.875;stroke-miterlimit:10;}
	.st11{fill:#001E36;}
	.st12{fill:#31A8FF;}
	.st13{fill:url(#SVGID_1_);}
	.st14{fill:url(#SVGID_00000124143696384338490780000007102079271445848707_);}
	.st15{fill:#EE4C2C;}
	.st16{fill-rule:evenodd;clip-rule:evenodd;fill:#41CD52;}
	.st17{fill:#2489CA;}
	.st18{fill:#1070B3;}
	.st19{fill:#0877B9;}
	.st20{fill:#3C99D4;}
	.st21{fill-rule:evenodd;clip-rule:evenodd;fill:#43B049;}
	.st22{fill:#394AAB;}
	.st23{fill:#00599C;}
	.st24{fill:#330000;}
	.st25{fill:#FF9A00;}
	.st26{fill:#4499DD;}
	.st27{fill:url(#SVGID_00000023241922808746373610000013028667830770597310_);}
	.st28{fill:url(#SVGID_00000158023542378819080240000016103018597217031609_);}
	.st29{fill:#00005B;}
	.st30{fill:#9999FF;}
	.st31{clip-path:url(#SVGID_00000013913334983312468180000004651173091107524279_);}
	.st32{clip-path:url(#SVGID_00000094596798553833105120000018255937285421901706_);}
	.st33{fill:url(#SVGID_00000051368668186952941500000016345546911437109134_);}
	.st34{fill:url(#SVGID_00000055705445647619131410000004291770889838552718_);}
	.st35{fill:#09C4EF;}
	.st36{fill:url(#SVGID_00000054258326522062925750000014996243698233535373_);}
	.st37{fill:#FFFFFF;stroke:#000000;}
	.st38{stroke:#000000;}
	.st39{fill:#FF0101;}
	.st40{fill:#0101FF;}
	.st41{fill:#01FF01;}
	.st42{fill:#FFFFFF;filter:url(#Adobe_OpacityMaskFilter);}
	.st43{mask:url(#mask0_217_156_00000141433663883255809670000006934361108887679908_);}
	.st44{fill:#5E438F;}
	.st45{fill:url(#SVGID_00000050655413631845266860000011237218649854729110_);}
	.st46{fill:url(#SVGID_00000173882445577487694080000008534999295860177795_);}
	.st47{fill:url(#SVGID_00000021817510875921506400000015355153737256433062_);}
</style>
<g id="图层_1">
	<g transform="translate(900, 0)">
		<path class="st0" d="M-725,0.2h25.5c6.2,0,11.2,5,11.2,11.2v25.5c0,6.2-5,11.2-11.2,11.2H-725c-6.2,0-11.2-5-11.2-11.2V11.4
			C-736.2,5.2-731.2,0.2-725,0.2z"/>
		<path class="st1" d="M-712.2,5.8c-10.4,0-18.8,8.4-18.8,18.8c0,8.3,5.4,15.3,12.8,17.8c0.9,0.2,1.3-0.4,1.3-0.9c0-0.4,0-1.9,0-3.5
			c-5.2,1.1-6.3-2.2-6.3-2.2c-0.9-2.2-2.1-2.7-2.1-2.7c-1.7-1.2,0.1-1.1,0.1-1.1c1.9,0.1,2.9,1.9,2.9,1.9c1.7,2.9,4.4,2,5.5,1.6
			c0.2-1.2,0.7-2,1.2-2.5c-4.2-0.5-8.5-2.1-8.5-9.3c0-2,0.7-3.7,1.9-5c-0.2-0.5-0.8-2.4,0.2-5c0,0,1.6-0.5,5.2,1.9
			c1.5-0.4,3.1-0.6,4.7-0.6c1.6,0,3.2,0.2,4.7,0.6c3.6-2.4,5.2-1.9,5.2-1.9c1,2.6,0.4,4.5,0.2,5c1.2,1.3,1.9,3,1.9,5
			c0,7.2-4.4,8.8-8.6,9.3c0.7,0.6,1.3,1.7,1.3,3.5c0,2.5,0,4.5,0,5.1c0,0.5,0.3,1.1,1.3,0.9c7.4-2.5,12.8-9.5,12.8-17.8
			C-693.5,14.2-701.9,5.8-712.2,5.8z M-724,32.5c0,0.1-0.2,0.1-0.3,0.1c-0.1-0.1-0.2-0.2-0.2-0.3c0-0.1,0.2-0.1,0.3-0.1
			C-724,32.3-723.9,32.4-724,32.5z M-723.1,33.3c-0.1,0.1-0.3,0-0.4-0.1c-0.1-0.1-0.1-0.3-0.1-0.4c0.1-0.1,0.3,0,0.4,0.1
			C-723,33.1-723,33.2-723.1,33.3z M-722.4,34.4c-0.1,0.1-0.3,0-0.4-0.2c-0.1-0.2-0.1-0.4,0-0.4c0.1-0.1,0.3,0,0.4,0.2
			C-722.3,34.1-722.3,34.3-722.4,34.4z M-721.3,35.6c-0.1,0.1-0.3,0.1-0.5-0.1c-0.2-0.2-0.2-0.4-0.1-0.5c0.1-0.1,0.3-0.1,0.5,0.1
			C-721.3,35.3-721.2,35.5-721.3,35.6z M-720,36c0,0.1-0.3,0.2-0.5,0.2c-0.2-0.1-0.4-0.2-0.3-0.4c0-0.1,0.3-0.2,0.5-0.2
			C-720.1,35.7-719.9,35.9-720,36z M-718.4,36.2c0,0.2-0.2,0.3-0.4,0.3c-0.2,0-0.4-0.1-0.4-0.3c0-0.2,0.2-0.3,0.4-0.3
			C-718.6,35.9-718.4,36-718.4,36.2z M-716.8,36.1c0,0.2-0.1,0.3-0.3,0.3c-0.2,0-0.4-0.1-0.4-0.2c0-0.2,0.1-0.3,0.3-0.3
			C-717.1,35.9-716.9,36-716.8,36.1z"/>
	</g>
	<g transform="translate(1500, 0)">
		<path class="st2" d="M-1270.3,0.2h25.5c6.2,0,11.2,5,11.2,11.2v25.5c0,6.2-5,11.2-11.2,11.2h-25.5c-6.2,0-11.2-5-11.2-11.2V11.4
			C-1281.6,5.2-1276.5,0.2-1270.3,0.2z"/>
		<path class="st1" d="M-1272.6,7.3l1.6,18.1h20.8l-0.7,7.8l-6.7,1.8l-6.7-1.8l-0.4-5h-6l0.9,9.6l12.3,3.4l12.3-3.4l1.6-18.4h-21.8
			l-0.5-6.1h22.9h0l0.5-6H-1272.6z"/>
		<path class="st3" d="M-1257.6,7.3h-15l1.6,18.1h13.4v-6h-7.9l-0.5-6.1h8.5V7.3z"/>
		<path class="st3" d="M-1257.6,35L-1257.6,35l-6.7-1.8l-0.4-5h-6l0.9,9.6l12.3,3.4l0,0V35z"/>
	</g>
	<g transform="translate(2700, 0)">
		<path class="st0" d="M-2306.3,56.3h25.5c6.2,0,11.2,5,11.2,11.2v25.5c0,6.2-5,11.2-11.2,11.2h-25.5c-6.2,0-11.2-5-11.2-11.2V67.6
			C-2317.6,61.4-2312.6,56.3-2306.3,56.3z"/>
		<path class="st4" d="M-2301.5,93.8l4.6,2.6h7l6.5-4.9l2.9-7.7l-6.7-8.1l-1.9-4.6l-9.3,0.3l0.1,2.6l-1.8,3.3l-2.8,5.4l-0.6,4.6
			L-2301.5,93.8z"/>
		<path class="st5" d="M-2282.5,77.8c-1.8-2.6-3.3-4.1-4-7.3c-0.8-3.2,0.2-2.3-0.4-5.1c-0.3-1.4-0.9-2.4-1.5-3.2
			c-0.7-0.8-1.5-1.2-1.9-1.3c-1-0.6-3.4-1.4-6.3,0.1c-3,1.6-2.7,4.9-2.1,11.7c0,0.4-0.1,1-0.3,1.4c-0.4,1-1.2,1.9-1.9,2.7
			c-0.8,1.1-1.6,2.2-2.1,3.4c-1.3,2.6-2.6,5.8-2.2,7c0.6-0.1,7.6,10.5,7.6,10.8c0.4-0.1,2.4-0.1,4-0.1c2.4-0.1,3.7-0.2,5.6,0.2
			c0-0.3-0.1-0.7-0.1-1c0-0.7,0.1-1.2,0.2-2c0.1-0.6,0.2-1.1,0.3-1.8c-1.1,1-3.1,2.1-5,2.4c-1.7,0.3-4.5-0.2-5.8-1.9
			c0.1,0,0.3,0,0.4-0.1c0.3-0.1,0.7-0.2,0.8-0.4c0.3-0.6,0.1-1.1-0.1-1.4c-0.2-0.3-1.9-1.6-2.7-2.2c-0.8-0.7-1.2-1-1.7-1.4
			c0,0-0.7-0.7-0.9-0.9c-0.2-0.2-0.3-0.4-0.4-0.6c-0.2-0.6-0.3-1.2-0.2-2.1c0.1-1.2,0.6-2.2,1.1-3.3c0.2-0.4,0.8-1.3,0.8-1.3
			s-1.9,4.7-0.9,6.1c0,0,0.1-1.4,0.6-2.9c0.3-1,0.9-2.4,1.6-3.2c0.7-0.8,2.4-3.7,2.5-5.4c0-0.8,0.1-1.6,0.1-2.1
			c-0.4-0.4,7.4-1.6,7.9-0.3c0.1,0.4,1.7,4.4,2.6,6.6c0.4,1,1,1.9,1.3,3c0.3,1.2,0.6,2.9,0.6,4.6c0,0.3,0,0.9-0.1,1.4
			c0.2,0,4.6-4.7-0.6-8.5c0,0,3.1,1.4,3.3,4.3c0.1,2.3-0.9,4.2-1.1,4.6c0.1,0,2.4,1,2.5,1c0.4,0,1.3-0.3,1.3-0.3
			c0.1-0.3,0.4-1.2,0.4-1.6C-2278.8,84.5-2280.7,80.4-2282.5,77.8L-2282.5,77.8z"/>
		<path class="st4" d="M-2296.8,70.5c0.8,0,1.5-1,1.5-2.2c0-1.2-0.7-2.2-1.5-2.2c-0.8,0-1.5,1-1.5,2.2
			C-2298.2,69.5-2297.6,70.5-2296.8,70.5z"/>
		<path class="st4" d="M-2291.7,70.7c1.1,0,1.9-1.1,1.9-2.6c0-1.4-0.9-2.6-1.9-2.6c-1.1,0-1.9,1.1-1.9,2.6
			C-2293.6,69.6-2292.8,70.7-2291.7,70.7z"/>
		<path class="st6" d="M-2296,68.4c-0.1-0.7-0.5-1.3-0.9-1.2c-0.4,0.1-0.7,0.7-0.6,1.4c0.1,0.7,0.5,1.3,0.9,1.2
			C-2296.1,69.8-2295.9,69.2-2296,68.4z"/>
		<path class="st6" d="M-2291.8,70c0.6,0,1.1-0.6,1.1-1.4c0-0.8-0.5-1.4-1.1-1.4s-1.1,0.6-1.1,1.4C-2293,69.4-2292.5,70-2291.8,70z"
			/>
		<path class="st7" d="M-2276.9,93c-0.4-0.2-1.2-0.6-1.9-1.6c-0.3-0.6-0.2-2.1-0.8-2.8c-0.3-0.4-0.8-0.2-0.9-0.2
			c-1,0.2-3.4,1.8-4.9,0c-0.2-0.2-0.6-0.6-1.1-0.6c-0.6,0-0.8,0.2-1,0.7c-0.2,0.4-0.2,0.8-0.2,1.9c0,0.9,0,1.9-0.1,2.7
			c-0.2,1.9-0.6,3-0.6,4.1c0,1.2,0.3,2,0.8,2.3c0.3,0.3,0.9,0.6,2.1,0.6c1.2,0,2-0.4,2.8-1.2c0.6-0.6,1-0.8,2.6-1.9
			c1.2-0.8,3.1-1.8,3.5-2.1c0.2-0.2,0.6-0.3,0.6-1C-2276.1,93.4-2276.6,93.1-2276.9,93L-2276.9,93z"/>
		<path class="st7" d="M-2299.5,93.4c-1.1-1.8-1.2-2.1-2-3.2c-0.7-1.1-2.1-3.2-3-3.2c-0.7,0-1,0.3-1.5,0.8c-0.4,0.4-0.9,1.4-1.7,2
			c-0.7,0.6-2.6,0.4-3,1.1s0.4,1.7,0.4,3.3c0,0.7-0.6,1.1-0.7,1.6c-0.1,0.6-0.2,0.9,0,1.3c0.4,0.7,1,0.9,4.8,1.7
			c2,0.4,3.9,1.6,5.2,1.7c1.2,0.1,3.4,0,3.4-3C-2297.4,95.6-2298.5,95.1-2299.5,93.4z"/>
		<path class="st7" d="M-2297.3,73.3c-0.7-0.4-1.2-0.9-1.2-1.6s0.4-0.9,1.1-1.4c0.1-0.1,1.3-1.2,2.6-1.2s2.7,0.8,3.3,1
			c1,0.2,2,0.4,1.9,1.2c-0.1,1.1-0.2,1.3-1.3,1.9c-0.8,0.2-2.2,1.4-3.3,1.4c-0.4,0-1.1,0-1.6-0.1
			C-2296.2,74.4-2296.8,73.8-2297.3,73.3L-2297.3,73.3z"/>
		<path class="st8" d="M-2297.6,72.4c0.2,0.2,0.6,0.4,0.9,0.6c0.2,0.1,0.6,0.2,0.6,0.2c0.4,0,0.8,0,1,0c0.6,0,1.3-0.2,2.1-0.7
			c0.8-0.3,0.9-0.6,1.5-0.8c0.6-0.3,1.1-0.7,0.9-0.8c-0.2-0.1-0.4,0-1.2,0.4c-0.7,0.4-1.2,0.7-1.9,1c-0.3,0.1-0.8,0.3-1.1,0.3
			c-0.3,0-0.7,0-1,0c-0.3,0-0.6-0.1-0.9-0.2c-0.2-0.1-0.3-0.2-0.4-0.2c-0.2-0.1-0.7-0.6-0.9-0.7c0,0-0.2,0-0.1,0.1
			C-2297.9,72-2297.8,72.2-2297.6,72.4z"/>
		<path class="st8" d="M-2294.2,69.9c0.1,0.2,0.3,0.2,0.4,0.3c0.1,0.1,0.2,0.1,0.2,0.1c0.1-0.1,0-0.3-0.1-0.3
			C-2293.6,69.8-2294.2,69.8-2294.2,69.9L-2294.2,69.9z"/>
		<path class="st8" d="M-2296,70.2c0,0.1,0.2,0.2,0.2,0.1c0.1-0.1,0.2-0.2,0.3-0.2c0.2-0.1,0.1-0.2-0.2-0.2
			C-2295.9,69.9-2295.9,70-2296,70.2L-2296,70.2z"/>
		<path class="st9" d="M-2285.1,89.8c0,0.1,0,0.2,0,0.3c0.2,0.4,0.8,0.6,1.2,0.6c0.7,0,1.3-0.4,1.7-0.9c0-0.1,0.1-0.2,0.2-0.3
			c0.2-0.3,0.3-0.6,0.4-0.7c0,0-0.1-0.1-0.1-0.2c-0.1-0.2-0.4-0.4-0.9-0.6c-0.3-0.1-0.9-0.2-1.1-0.2c-1-0.1-1.6,0.2-1.9,0.6
			c0,0,0.1,0,0.1,0.1c0.2,0.2,0.3,0.4,0.3,0.8C-2285,89.5-2285.1,89.6-2285.1,89.8L-2285.1,89.8z"/>
	</g>
	<g transform="translate(3000, 0)">
		<path class="st0" d="M-2716-0.1h25.5c6.2,0,11.2,5,11.2,11.2v25.5c0,6.2-5,11.2-11.2,11.2h-25.5c-6.2,0-11.2-5-11.2-11.2V11.1
			C-2727.3,4.9-2722.2-0.1-2716-0.1z"/>
		<path class="st10" d="M-2686.6,12.8h-33.4c-1,0-1.9,0.8-1.9,1.9v18.4c0,1,0.8,1.9,1.9,1.9h33.4c1,0,1.9-0.8,1.9-1.9V14.7
			C-2684.7,13.6-2685.6,12.8-2686.6,12.8z"/>
		<path class="st1" d="M-2717.2,30.2V17.5h3.8l3.8,4.7l3.8-4.7h3.8v12.8h-3.8v-7.3l-3.8,4.7l-3.8-4.7v7.3H-2717.2z M-2693.7,30.2
			l-5.6-6.2h3.8v-6.6h3.8v6.6h3.8L-2693.7,30.2z"/>
	</g>
	<g transform="translate(4800, 0)">
		<path class="st11" d="M-4733.9,56.4h25.5c6.2,0,11.2,5,11.2,11.2v25.5c0,6.2-5,11.2-11.2,11.2h-25.5c-6.2,0-11.2-5-11.2-11.2V67.6
			C-4745.1,61.4-4740.1,56.4-4733.9,56.4z"/>
		<path class="st12" d="M-4734.3,89.7V69.2c0-0.1,0.1-0.2,0.2-0.2c0.3,0,0.7,0,1.1,0c0.5,0,1,0,1.5,0c0.5,0,1.1,0,1.7,0
			c0.6,0,1.2,0,1.8,0c1.6,0,3,0.2,4.1,0.6c1,0.3,1.9,0.9,2.7,1.6c0.6,0.6,1.1,1.4,1.5,2.3c0.3,0.8,0.5,1.7,0.5,2.6
			c0,1.7-0.4,3.1-1.2,4.3c-0.8,1.1-1.9,2-3.2,2.4c-1.4,0.5-2.9,0.7-4.5,0.7c-0.5,0-0.8,0-1,0c-0.2,0-0.5,0-0.9,0v6.4
			c0,0.1-0.1,0.3-0.2,0.3c0,0,0,0-0.1,0h-3.8C-4734.3,90-4734.3,89.9-4734.3,89.7z M-4730,72.8v6.7c0.3,0,0.5,0,0.8,0h1.1
			c0.8,0,1.6-0.1,2.3-0.4c0.6-0.2,1.2-0.6,1.6-1.1c0.4-0.5,0.6-1.2,0.6-2.1c0-0.6-0.1-1.2-0.5-1.8c-0.3-0.5-0.8-0.9-1.4-1.1
			c-0.7-0.3-1.5-0.4-2.4-0.4c-0.5,0-1,0-1.4,0C-4729.6,72.8-4729.8,72.8-4730,72.8z"/>
		<path class="st12" d="M-4706.7,78.3c-0.6-0.3-1.2-0.5-1.9-0.7c-0.7-0.2-1.5-0.3-2.2-0.3c-0.4,0-0.8,0-1.2,0.1
			c-0.3,0.1-0.5,0.2-0.6,0.4c-0.1,0.2-0.2,0.4-0.2,0.5s0.1,0.4,0.2,0.5c0.2,0.2,0.4,0.4,0.7,0.5c0.5,0.2,0.9,0.5,1.4,0.7
			c1.1,0.4,2.1,0.9,3.1,1.5c0.7,0.4,1.2,1,1.6,1.7c0.3,0.6,0.5,1.3,0.5,2.1c0,0.9-0.3,1.9-0.8,2.7c-0.6,0.8-1.3,1.4-2.2,1.8
			c-1,0.4-2.2,0.6-3.6,0.6c-0.9,0-1.8-0.1-2.7-0.3c-0.7-0.1-1.4-0.3-2-0.6c-0.1-0.1-0.2-0.2-0.2-0.4v-3.5c0-0.1,0-0.1,0.1-0.2
			s0.1,0,0.2,0c0.8,0.5,1.6,0.8,2.5,1c0.8,0.2,1.6,0.3,2.4,0.3c0.8,0,1.3-0.1,1.7-0.3c0.3-0.1,0.5-0.5,0.5-0.8
			c0-0.3-0.2-0.5-0.5-0.8c-0.3-0.3-1-0.6-2-0.9c-1-0.4-2-0.8-2.8-1.4c-0.6-0.4-1.1-1-1.5-1.7c-0.3-0.6-0.5-1.3-0.5-2
			c0-0.9,0.2-1.7,0.7-2.4c0.5-0.8,1.2-1.4,2.1-1.8c0.9-0.5,2.1-0.7,3.5-0.7c0.8,0,1.7,0.1,2.5,0.2c0.6,0.1,1.2,0.2,1.7,0.5
			c0.1,0,0.2,0.1,0.2,0.2c0,0.1,0,0.2,0,0.2v3.3c0,0.1,0,0.2-0.1,0.2C-4706.6,78.3-4706.7,78.3-4706.7,78.3z"/>
	</g>
	<g transform="translate(300, 300)">
		<path class="st0" d="M-288.8-299.8h25.5c6.2,0,11.2,5,11.2,11.2v25.5c0,6.2-5,11.2-11.2,11.2h-25.5c-6.2,0-11.2-5-11.2-11.2v-25.5
			C-300-294.8-295-299.8-288.8-299.8z"/>
		
			<linearGradient id="SVGID_1_" gradientUnits="userSpaceOnUse" x1="1426.9491" y1="-2052.7278" x2="1526.062" y2="-2150.8518" gradientTransform="matrix(0.1875 0 0 -0.1875 -558.8125 -675.8125)">
			<stop  offset="0" style="stop-color:#387EB8"/>
			<stop  offset="1" style="stop-color:#366994"/>
		</linearGradient>
		<path class="st13" d="M-276.1-294.4c-9.5,0-8.9,4.1-8.9,4.1l0,4.3h9.1v1.3h-12.7c0,0-6.1-0.7-6.1,8.9c0,9.6,5.3,9.3,5.3,9.3h3.2
			v-4.5c0,0-0.2-5.3,5.2-5.3h9c0,0,5.1,0.1,5.1-4.9v-8.2C-267-289.4-266.2-294.4-276.1-294.4z M-281.1-291.5c0.9,0,1.6,0.7,1.6,1.6
			c0,0.9-0.7,1.6-1.6,1.6c-0.9,0-1.6-0.7-1.6-1.6C-282.8-290.8-282-291.5-281.1-291.5z"/>
		
			<linearGradient id="SVGID_00000007428136948768312770000017153942761042499461_" gradientUnits="userSpaceOnUse" x1="1487.8248" y1="-2115.7234" x2="1594.2609" y2="-2216.3406" gradientTransform="matrix(0.1875 0 0 -0.1875 -558.8125 -675.8125)">
			<stop  offset="0" style="stop-color:#FFE052"/>
			<stop  offset="1" style="stop-color:#FFC331"/>
		</linearGradient>
		<path style="fill:url(#SVGID_00000007428136948768312770000017153942761042499461_);" d="M-275.9-257.1c9.5,0,8.9-4.1,8.9-4.1
			l0-4.3h-9.1v-1.3h12.7c0,0,6.1,0.7,6.1-8.9c0-9.6-5.3-9.3-5.3-9.3h-3.2v4.5c0,0,0.2,5.3-5.2,5.3h-9c0,0-5.1-0.1-5.1,4.9v8.2
			C-285-262.1-285.8-257.1-275.9-257.1z M-270.9-260c-0.9,0-1.6-0.7-1.6-1.6c0-0.9,0.7-1.6,1.6-1.6c0.9,0,1.6,0.7,1.6,1.6
			C-269.2-260.7-270-260-270.9-260z"/>
	</g>
	<g transform="translate(600, 300)">
		<path class="st0" d="M-534-299.8h25.5c6.2,0,11.2,5,11.2,11.2v25.5c0,6.2-5,11.2-11.2,11.2H-534c-6.2,0-11.2-5-11.2-11.2v-25.5
			C-545.3-294.8-540.2-299.8-534-299.8z"/>
		<path class="st15" d="M-511.3-282.9l-2.5,2.5c4.1,4.1,4.1,10.7,0,14.8c-4.1,4.1-10.7,4.1-14.8,0c-4.1-4.1-4.1-10.7,0-14.8l6.5-6.5
			l0.9-0.9v-4.9l-9.8,9.8c-5.5,5.5-5.5,14.3,0,19.8c5.5,5.5,14.3,5.5,19.7,0C-505.8-268.6-505.8-277.4-511.3-282.9z"/>
		<path class="st15" d="M-516.2-283.5c1,0,1.8-0.8,1.8-1.8s-0.8-1.8-1.8-1.8c-1,0-1.8,0.8-1.8,1.8S-517.3-283.5-516.2-283.5z"/>
	</g>
	<g transform="translate(900, 300)">
		<path class="st0" d="M-779.3-299.8h25.5c6.2,0,11.2,5,11.2,11.2v25.5c0,6.2-5,11.2-11.2,11.2h-25.5c-6.2,0-11.2-5-11.2-11.2v-25.5
			C-790.5-294.8-785.5-299.8-779.3-299.8z"/>
		<path class="st16" d="M-771.9-282.9c-1.6,0-2.8,0.5-3.4,1.6c-0.6,1-0.9,2.7-0.9,5c0,2.3,0.3,3.9,0.9,4.9c0.6,1,1.7,1.5,3.4,1.5
			c1.7,0,2.8-0.5,3.4-1.4c0.6-1,0.9-2.6,0.9-4.9c0-2.3-0.3-4-0.9-5C-769.1-282.4-770.2-282.9-771.9-282.9"/>
		<path class="st16" d="M-757-268c-1.5,0-2.5-0.3-3.1-1c-0.6-0.6-0.8-1.9-0.8-3.6v-5.8h-2v-2.3h2v-3.6h2.8v3.6h3.6v2.3h-3.6v5.5
			c0,1,0.1,1.7,0.2,2c0.2,0.3,0.6,0.5,1.2,0.5l2.2-0.1l0.1,2.2C-755.5-268.1-756.4-268-757-268L-757-268z M-765.2-265.4l-2.7,1.2
			l-2.3-3.6c-0.3,0.1-0.9,0.1-1.6,0.1c-2.7,0-4.6-0.7-5.7-2.1c-1.1-1.4-1.6-3.6-1.6-6.6c0-3,0.6-5.2,1.6-6.7c1.1-1.5,3-2.2,5.7-2.2
			c2.7,0,4.6,0.7,5.7,2.2c1.1,1.4,1.6,3.7,1.6,6.7c0,2-0.2,3.6-0.7,4.8c-0.5,1.2-1.2,2.2-2.2,2.8L-765.2-265.4z M-749.8-290.3h-1.4
			h-30.4l-5.8,5.4v18.2v1.5v3.8h4h1.4h30.4l5.8-5.4V-285v-1.5v-3.8H-749.8z"/>
	</g>
	<g transform="translate(4500, 300)">
		<path class="st0" d="M-4270.3-243.8h25.5c6.2,0,11.2,5,11.2,11.2v25.5c0,6.2-5,11.2-11.2,11.2h-25.5c-6.2,0-11.2-5-11.2-11.2
			v-25.5C-4281.6-238.8-4276.5-243.8-4270.3-243.8z"/>
		<path class="st17" d="M-4275.3-225c0,0-0.9-0.6,0.2-1.5l2.5-2.2c0,0,0.7-0.7,1.5-0.1l22.9,17.3v8.3c0,0,0,1.3-1.7,1.2L-4275.3-225
			z"/>
		<path class="st18" d="M-4269.4-219.7l-5.9,5.4c0,0-0.6,0.5,0,1.3l2.7,2.5c0,0,0.7,0.7,1.6-0.1l6.3-4.7L-4269.4-219.7z"/>
		<path class="st19" d="M-4259-219.6l10.8-8.3l-0.1-8.3c0,0-0.5-1.8-2-0.9l-14.4,13.1L-4259-219.6z"/>
		<path class="st20" d="M-4249.9-202c0.6,0.6,1.4,0.4,1.4,0.4l8.4-4.2c1.1-0.7,0.9-1.6,0.9-1.6v-24.8c0-1.1-1.1-1.5-1.1-1.5
			l-7.3-3.5c-1.6-1-2.6,0.2-2.6,0.2s1.3-1,2,0.9v32.8c0,0.2,0,0.4-0.1,0.6C-4248.6-202.3-4249-201.9-4249.9-202L-4249.9-202z"/>
	</g>
	<g transform="translate(5100, 300)">
	</g>
	<path class="st0" d="M502.3,56.7h25.4c6.2,0,11.2,5,11.2,11.2v25.4c0,6.2-5,11.2-11.2,11.2h-25.4c-6.2,0-11.2-5-11.2-11.2V67.9
		C491.1,61.7,496.1,56.7,502.3,56.7z"/>
	<path class="st21" d="M515.1,62c-0.7,0-1.4,0.1-2.1,0.1c1,0.7,1.9,1.4,2.8,2.3l0.7,0.7l-0.7,0.7c-0.6,0.6-1.2,1.2-1.8,1.9v0.1
		c-0.1,0.1-0.2,0.2-0.3,0.3c0.4,0,0.9-0.1,1.3-0.1c3.3,0,6.5,1.4,8.9,3.8c2.4,2.4,3.7,5.6,3.7,8.9c0,3.3-1.3,6.6-3.7,8.9
		c-2.4,2.4-5.5,3.7-8.9,3.8c-2.3,0-4.7-0.6-6.6-1.9c-1,0.1-1.9,0.2-2.9,0.2c-0.4,0-0.9,0-1.3-0.1c0.1,1.5,0.2,3,0.4,4.5
		c3.1,2.1,6.7,3.2,10.5,3.2c2.5,0,4.9-0.5,7.2-1.4c2.3-0.9,4.3-2.3,6.1-4.1c1.7-1.7,3.1-3.8,4.1-6.1c0.9-2.3,1.4-4.7,1.4-7.2
		c0-2.5-0.5-4.9-1.4-7.2c-0.9-2.3-2.3-4.3-4.1-6.1c-1.7-1.7-3.8-3.1-6.1-4.1C520,62.5,517.5,62,515.1,62z M505,65
		c1.3-0.8,2.7-1.5,4.1-2c-0.5,0.9-0.9,1.8-1.3,2.7C506.8,65.4,505.9,65.1,505,65z M503.9,71.8c0.7,0,1.5-0.1,2.2-0.1
		c-0.8,0.7-1.5,1.6-2,2.5c-0.2-0.8-0.3-1.6-0.4-2.4L503.9,71.8z M503.2,90.6v0.1l-0.2-0.1c-1.4-0.1-2.8-0.4-4.2-0.8l-0.1-0.1
		l0.1-0.1c0.4-1.3,0.9-2.6,1.5-3.9l0.1-0.1l0.1,0.1c0.9,0.5,1.9,1,2.9,1.4l0.1,0.1v0.1C503.3,88.4,503.2,89.5,503.2,90.6z
		 M503.2,91.7v-0.1h-0.1c-1.2-0.1-2.4-0.3-3.6-0.6l-0.3-0.1l0.2,0.3c1.1,1.6,2.4,3.1,3.9,4.3l0.2,0.2v-0.4
		C503.3,94.1,503.3,92.9,503.2,91.7z M513.8,65.1c-0.4,0.4-0.8,0.8-1.2,1.3c0,0.1-0.3,0.4-0.7,0.8c-0.8-0.4-1.6-0.7-2.4-1l-0.1-0.1
		c0.4-1.1,1-2.1,1.5-3.1C511.9,63.7,512.9,64.4,513.8,65.1z M499.9,77.1l0.1,0.1l0.1-0.1c0.9-0.6,1.8-1.2,2.7-1.7l0.1-0.1v-0.1
		c-0.3-1.1-0.5-2.2-0.6-3.3v-0.1h-0.1c-1.4,0.3-2.7,0.6-4,1.1l-0.1,0.1l0.1,0.1C498.5,74.6,499.1,75.9,499.9,77.1z M499.6,79
		l0.1-0.1l0.1,0.2c0.6,0.8,1.2,1.7,1.9,2.4l0.1,0.1l-0.1,0.1c-0.6,0.8-1.2,1.7-1.7,2.5l-0.1,0.1l-0.1-0.1c-1.1-0.7-2.1-1.5-3.1-2.3
		l-0.1-0.1l0.1-0.1C497.6,80.7,498.6,79.8,499.6,79z M507.1,90.7h0.3l-0.3-0.2c-1-0.8-1.9-1.8-2.5-2.9v-0.1l-0.2-0.1v0.2
		c-0.1,1-0.2,2-0.2,2.9v0.1h0.1c0.2,0,0.4,0,0.7,0c0.2,0,0.4,0,0.7,0H507.1z M507.2,67.3c-0.3,0.9-0.6,1.8-0.8,2.7
		c-1,0-1.9,0.1-2.9,0.2c-0.1-1.2,0-2.4,0.1-3.7C504.8,66.7,506,67,507.2,67.3z M508.2,70c0.8-0.5,1.7-0.9,2.6-1.3
		c-0.6-0.3-1.3-0.6-2-0.8C508.6,68.5,508.4,69.2,508.2,70z M499.4,85.1h0.1l-0.1,0.2c-0.5,1-0.9,2-1.3,3.1l-0.1,0.3l-0.1-0.3
		c-0.8-1.6-1.3-3.4-1.5-5.2l-0.1-0.3l0.3,0.2C497.5,83.9,498.5,84.5,499.4,85.1z M501.9,67.4c-1.1,1.1-2.1,2.4-2.9,3.7
		c0.9-0.3,1.9-0.5,2.9-0.7l0,0C501.9,69.4,501.9,68.4,501.9,67.4z M502.5,80.2v0.3l-0.2-0.3c-0.4-0.5-0.8-1-1.2-1.5
		c-0.1-0.2-0.2-0.3-0.4-0.5l-0.2-0.1l0.1-0.1c0.7-0.5,1.4-0.9,2.1-1.3l0.1-0.1l0.3-0.2l-0.1,0.3C502.7,78,502.5,79.1,502.5,80.2z
		 M502.6,82.5l-0.1-0.3l-0.2,0.3c-0.5,0.7-1,1.5-1.4,2.3l-0.1,0.1l0.1,0.1c0.8,0.4,1.6,0.8,2.4,1.2l0.1,0l0.3,0.1l-0.1-0.3
		C503.1,84.8,502.8,83.7,502.6,82.5z M499.1,77.9L499,78c-0.9,0.7-1.7,1.5-2.4,2.3l-0.2,0.2v-0.3c0-1.8,0.3-3.6,0.9-5.3l0.1-0.3
		l0.1,0.3c0.5,1,1,2,1.6,2.9L499.1,77.9z"/>
	<path class="st22" d="M338.8,0.2h25.6c6.2,0,11.3,5.1,11.3,11.3V37c0,6.2-5.1,11.3-11.3,11.3h-25.6c-6.2,0-11.3-5.1-11.3-11.3V11.5
		C327.5,5.2,332.6,0.2,338.8,0.2z"/>
	<path class="st1" d="M352.7,6.3c6.5,0,12.2,3.5,15.2,8.8l0-0.1l-7.7,4.4c-1.5-2.6-4.3-4.3-7.4-4.3l-0.1,0c-4.8,0-8.8,3.9-8.8,8.8
		c0,1.6,0.4,3.1,1.2,4.3c1.5,2.6,4.3,4.4,7.6,4.4c3.3,0,6.1-1.8,7.6-4.5l0,0.1l7.6,4.4c-3,5.2-8.6,8.7-15,8.8l-0.2,0
		c-6.5,0-12.2-3.6-15.3-8.8c-1.5-2.6-2.3-5.6-2.3-8.8C335.1,14.2,343,6.3,352.7,6.3z"/>
	<path class="st23" d="M393.2,0.6h25.4c6.2,0,11.2,5,11.2,11.2v25.4c0,6.2-5,11.2-11.2,11.2h-25.4c-6.2,0-11.2-5-11.2-11.2V11.8
		C382,5.6,387,0.6,393.2,0.6z"/>
	<path class="st1" d="M402.7,39.9c-8.5,0-15.4-6.9-15.4-15.4c0-8.5,6.9-15.4,15.4-15.4c5.5,0,10.6,3,13.4,7.7l-6.7,3.9
		c-1.4-2.4-3.9-3.9-6.7-3.9c-4.3,0-7.7,3.5-7.7,7.7c0,4.3,3.5,7.7,7.7,7.7c2.7,0,5.3-1.5,6.7-3.9l6.7,3.9
		C413.3,36.9,408.2,39.9,402.7,39.9z"/>
	<path class="st1" d="M418.1,23.6h-1.7v-1.7h-1.7v1.7H413v1.7h1.7V27h1.7v-1.7h1.7V23.6z"/>
	<path class="st1" d="M424.5,23.6h-1.7v-1.7h-1.7v1.7h-1.7v1.7h1.7V27h1.7v-1.7h1.7V23.6z"/>
	<path class="st24" d="M121.5,56.4H147c6.2,0,11.2,5,11.2,11.2v25.5c0,6.2-5,11.2-11.2,11.2h-25.5c-6.2,0-11.2-5-11.2-11.2V67.6
		C110.2,61.4,115.2,56.4,121.5,56.4z"/>
	<path class="st25" d="M133.4,84.9H126l-1.5,4.7c0,0.2-0.2,0.3-0.4,0.3h-3.8c-0.2,0-0.3-0.1-0.2-0.4l6.4-18.5
		c0.1-0.2,0.1-0.4,0.2-0.7c0.1-0.4,0.1-0.9,0.1-1.3c0-0.1,0.1-0.2,0.2-0.2h0.1h5.1c0.2,0,0.2,0.1,0.3,0.2l7.3,20.6
		c0.1,0.2,0,0.3-0.2,0.3h-4.2c-0.1,0-0.3-0.1-0.3-0.2L133.4,84.9L133.4,84.9z M127.1,80.9h5.1c-0.1-0.4-0.3-0.9-0.5-1.4
		c-0.2-0.5-0.4-1.1-0.5-1.7c-0.2-0.6-0.4-1.2-0.6-1.8c-0.2-0.6-0.4-1.2-0.5-1.8c-0.2-0.6-0.3-1.1-0.4-1.6h0
		c-0.2,0.9-0.4,1.7-0.7,2.6c-0.3,1-0.6,2-0.9,3C127.7,79.1,127.4,80,127.1,80.9L127.1,80.9z"/>
	<path class="st25" d="M144.2,72.3c-0.7,0-1.3-0.2-1.8-0.7c-0.5-0.5-0.7-1.2-0.7-1.8c0-0.7,0.2-1.3,0.7-1.8c0.5-0.5,1.1-0.7,1.8-0.7
		c0.8,0,1.4,0.2,1.8,0.7c0.4,0.5,0.7,1.1,0.7,1.8c0,0.7-0.2,1.3-0.7,1.8C145.6,72.1,144.9,72.4,144.2,72.3z M142,89.7V74.3
		c0-0.2,0.1-0.3,0.3-0.3h4c0.2,0,0.3,0.1,0.3,0.3v15.4c0,0.2-0.1,0.3-0.3,0.3h-3.9C142.1,90,142,89.9,142,89.7L142,89.7z"/>
	<path class="st0" d="M284.8,56.8h25.5c6.2,0,11.2,5,11.2,11.3v25.5c0,6.2-5,11.2-11.2,11.2h-25.5c-6.2,0-11.2-5-11.2-11.2V68
		C273.5,61.8,278.6,56.8,284.8,56.8z"/>
	<path class="st26" d="M280.4,82.2l10.1-4.1c1-1.4,2.2-2.6,3.4-3.7c0.8-0.4,2.4-0.2,5.3-3.8c2.8-3.5,3.7-6.5,5-6.5
		c2.1,0,3.6,4.5,5.9,11.2c1.6,5.2,3.6,10.2,5.8,15.1c-2.4-2.2-4.5-4.7-6.8-4.6c-2.2,0.1-4.6,2.6-7.2,5.9c-2.1,2.7-4.9,4.5-6,4.4
		c0,0-2.8-7.9-5.2-9.2c-0.5-0.2-1-0.3-1.5-0.2c-0.5,0-1,0.2-1.5,0.5L280.4,82.2L280.4,82.2z"/>
	
		<linearGradient id="SVGID_00000111897515790093849720000002338312771360785338_" gradientUnits="userSpaceOnUse" x1="299.1441" y1="26.6" x2="296.8787" y2="33.9153" gradientTransform="matrix(1 0 0 -1 0 106)">
		<stop  offset="0" style="stop-color:#551122"/>
		<stop  offset="0.23" style="stop-color:#552233"/>
		<stop  offset="0.36" style="stop-color:#553344"/>
		<stop  offset="0.51" style="stop-color:#664455"/>
		<stop  offset="0.66" style="stop-color:#556688"/>
		<stop  offset="0.84" style="stop-color:#2299DD"/>
	</linearGradient>
	<path style="fill:url(#SVGID_00000111897515790093849720000002338312771360785338_);" d="M302.9,65c-0.8,1.1-1.9,3.2-3.7,5.5
		c-2.9,3.6-4.4,3.3-5.3,3.8c-1.3,1.1-2.4,2.4-3.4,3.7l4.2,3.1c3.5-4.8,5.4-10.1,6.9-13.5C302,66.8,302.4,65.9,302.9,65L302.9,65z"/>
	
		<linearGradient id="SVGID_00000127045329125091632550000007555877098479657606_" gradientUnits="userSpaceOnUse" x1="315.4793" y1="22.0264" x2="292.698" y2="27.6205" gradientTransform="matrix(1 0 0 -1 0 106)">
		<stop  offset="8.100000e-02" style="stop-color:#CC3333"/>
		<stop  offset="0.189" style="stop-color:#DE5239"/>
		<stop  offset="0.313" style="stop-color:#F06E3E"/>
		<stop  offset="0.421" style="stop-color:#FA8042"/>
		<stop  offset="0.5" style="stop-color:#FE8643"/>
		<stop  offset="0.58" style="stop-color:#FA7F42"/>
		<stop  offset="0.696" style="stop-color:#EF6C3E"/>
		<stop  offset="0.833" style="stop-color:#DC4C37"/>
		<stop  offset="0.916" style="stop-color:#CF3633"/>
	</linearGradient>
	<path style="fill:url(#SVGID_00000127045329125091632550000007555877098479657606_);" d="M304.2,64.1c-2.8,0-4.6,14.5-14.8,22.6
		c2.9-0.5,5.3,6.6,6.5,9.5c5.1-0.9,9.1-10.5,13.2-10.4c2.3,0.1,4.4,2.4,6.8,4.6C310.4,78.9,307.8,64.1,304.2,64.1z"/>
	<path class="st29" d="M176.1,56.8h25.5c6.2,0,11.2,5,11.2,11.3v25.5c0,6.2-5,11.2-11.2,11.2h-25.5c-6.2,0-11.2-5-11.2-11.2V68
		C164.9,61.8,169.9,56.8,176.1,56.8z"/>
	<path class="st30" d="M175,91V70.4c0-0.1,0.1-0.2,0.2-0.2c0.3,0,0.7,0,1.1,0c0.5,0,1,0,1.5,0s1.1,0,1.7,0c0.6,0,1.2,0,1.8,0
		c1.6,0,3,0.2,4.1,0.6c1,0.3,1.9,0.9,2.7,1.6c0.6,0.6,1.1,1.4,1.5,2.3c0.3,0.8,0.5,1.7,0.5,2.6c0,1.7-0.4,3.1-1.2,4.3
		c-0.8,1.1-1.9,2-3.2,2.4c-1.4,0.5-2.9,0.7-4.5,0.7c-0.5,0-0.8,0-1,0c-0.2,0-0.5,0-0.9,0V91c0,0.1-0.1,0.3-0.2,0.3H179h-3.8
		C175.1,91.2,175,91.2,175,91L175,91z M179.4,74.1v6.7c0.3,0,0.5,0,0.8,0h1.1c0.8,0,1.6-0.1,2.3-0.4c0.6-0.2,1.2-0.6,1.6-1.1
		c0.4-0.5,0.6-1.2,0.6-2.1c0-0.6-0.1-1.2-0.5-1.8c-0.3-0.5-0.8-0.9-1.4-1.1c-0.7-0.3-1.5-0.4-2.4-0.4c-0.5,0-1,0-1.4,0
		C179.8,74,179.5,74,179.4,74.1L179.4,74.1z"/>
	<path class="st30" d="M193,75.2h3.5c0.2,0,0.4,0.1,0.4,0.3c0.1,0.2,0.1,0.3,0.1,0.5c0,0.2,0.1,0.4,0.1,0.6c0,0.2,0,0.5,0,0.7
		c0.6-0.7,1.3-1.3,2.1-1.7c0.9-0.5,2-0.8,3-0.8c0.1,0,0.3,0.1,0.3,0.2v0.1v3.9c0,0.2-0.1,0.2-0.3,0.2c-0.7,0-1.5,0-2.2,0.2
		c-0.6,0.1-1.1,0.3-1.7,0.5c-0.4,0.2-0.7,0.4-1,0.7V91c0,0.2-0.1,0.3-0.3,0.3h-3.9c-0.2,0-0.3-0.1-0.3-0.2V91V79.9c0-0.5,0-1,0-1.5
		c0-0.5,0-1,0-1.6c0-0.5,0-0.9-0.1-1.4C192.8,75.4,192.8,75.3,193,75.2C192.9,75.2,193,75.2,193,75.2L193,75.2z"/>
	<g>
		<defs>
			<rect id="SVGID_00000164484206780480734980000009622360791811814293_" x="328.6" y="56.2" width="48.5" height="48.5"/>
		</defs>
		<clipPath id="SVGID_00000067227502241528609190000016610001982990248374_">
			<use xlink:href="#SVGID_00000164484206780480734980000009622360791811814293_"  style="overflow:visible;"/>
		</clipPath>
		<g style="clip-path:url(#SVGID_00000067227502241528609190000016610001982990248374_);">
			<path class="st0" d="M365.8,56.2H340c-6.3,0-11.4,5.1-11.4,11.4v25.8c0,6.3,5.1,11.4,11.4,11.4h25.8c6.3,0,11.4-5.1,11.4-11.4
				V67.6C377.1,61.3,372,56.2,365.8,56.2z"/>
			<g>
				<defs>
					<rect id="SVGID_00000072966590019002355250000003853000916902411918_" x="336.2" y="63.8" width="33.2" height="33.2"/>
				</defs>
				<clipPath id="SVGID_00000120557333222113354420000006545305760473302696_">
					<use xlink:href="#SVGID_00000072966590019002355250000003853000916902411918_"  style="overflow:visible;"/>
				</clipPath>
				<g style="clip-path:url(#SVGID_00000120557333222113354420000006545305760473302696_);">
					
						<linearGradient id="SVGID_00000030451282646689441480000016547660886403745668_" gradientUnits="userSpaceOnUse" x1="354.4409" y1="41.7824" x2="351.3592" y2="8.6289" gradientTransform="matrix(1 0 0 -1 0 106)">
						<stop  offset="0" style="stop-color:#2CD788"/>
						<stop  offset="0.3797" style="stop-color:#24D68E"/>
						<stop  offset="1" style="stop-color:#1ED593"/>
					</linearGradient>
					<path style="fill:url(#SVGID_00000030451282646689441480000016547660886403745668_);" d="M338.2,68.9l-1.9,21.5l11.3,6.5
						l2.4-2.7l16.5-11.7l2.6-5.4l-6.3-5.3l-12.5-8L338.2,68.9z"/>
					
						<linearGradient id="SVGID_00000078036686823115359360000017897770702370369459_" gradientUnits="userSpaceOnUse" x1="363.1794" y1="40.2109" x2="343.229" y2="14.7458" gradientTransform="matrix(1 0 0 -1 0 106)">
						<stop  offset="0" style="stop-color:#ADE46C"/>
						<stop  offset="0.8867" style="stop-color:#59DC7E"/>
						<stop  offset="1" style="stop-color:#1FD593"/>
					</linearGradient>
					<path style="fill:url(#SVGID_00000078036686823115359360000017897770702370369459_);" d="M342.5,80.9l-4.9,7.2l12.2,6.2
						l11.9-24l-0.8-6.4l-7.3,6.4L342.5,80.9z"/>
					<path class="st35" d="M369.1,77.2l-6.3-5.2v11.2l3.7-0.7L369.1,77.2z"/>
					
						<linearGradient id="SVGID_00000121256358965548372760000000211802240106212264_" gradientUnits="userSpaceOnUse" x1="346.3256" y1="16.105" x2="368.2549" y2="19.5111" gradientTransform="matrix(1 0 0 -1 0 106)">
						<stop  offset="0" style="stop-color:#BAE768"/>
						<stop  offset="0.9933" style="stop-color:#FBF849"/>
						<stop  offset="1" style="stop-color:#FAF748"/>
					</linearGradient>
					<path style="fill:url(#SVGID_00000121256358965548372760000000211802240106212264_);" d="M359,96.9l-13.2-3.8l0.5-2.5
						l16.8-11.9l2.1-0.8l4.1,15.6L359,96.9z"/>
					<path d="M363,70.2h-20.5v20.5H363V70.2z"/>
					<path class="st37" d="M348.2,72.9h-3.8v8.5h1.8v-2.5h1.9l0.4-0.1l0.5-0.1l0.5-0.2l0.3-0.2l0.3-0.3l0.3-0.4l0.3-0.5l0.2-0.5
						l0.1-0.6l0-0.6l-0.1-0.6l-0.2-0.5l-0.2-0.4l-0.3-0.3l-0.3-0.2l-0.3-0.2l-0.3-0.1l-0.2-0.1l-0.3-0.1l-0.3-0.1L348.2,72.9z"/>
					<path class="st38" d="M347.9,74.6h-1.7v2.6h1.7l0.3-0.1l0.3-0.1l0.3-0.2l0.2-0.3l0.1-0.3v-0.4l-0.1-0.2l-0.1-0.3l-0.2-0.2
						l-0.2-0.2l-0.3-0.1L347.9,74.6z"/>
					<path class="st1" d="M352.1,86.9h-7.7v1.2h7.7V86.9z"/>
					<path class="st37" d="M360.8,77.2L360.8,77.2L360.8,77.2c0,1-0.4,2-1.1,2.8c-0.8,0.9-2,1.5-3.3,1.5c-2.5,0-4.5-1.8-4.5-4.2
						c0-1.2,0.4-2.3,1.2-3.1c0.8-0.8,1.9-1.3,3.4-1.3c1.3,0,2.4,0.5,3.2,1.4C360.4,74.9,360.9,76,360.8,77.2z"/>
					<path d="M359,77.1c0,1.5-0.9,2.7-2.8,2.7c-1.5,0-2.4-1.3-2.4-2.7c0-1.4,1-2.6,2.5-2.6S359,75.6,359,77.1z"/>
					<path class="st38" d="M358.4,75.5l1.2-1.4l1.5,1.7v2.5l-1.5,1.7l-1.2-1.2L358.4,75.5z"/>
				</g>
			</g>
		</g>
	</g>
	<path class="st0" d="M447.3,0.7h25.2c6.2,0,11.1,5,11.1,11.1v25.2c0,6.2-5,11.1-11.1,11.1h-25.2c-6.2,0-11.1-5-11.1-11.1V11.8
		C436.2,5.7,441.1,0.7,447.3,0.7z"/>
	<path class="st39" d="M455.5,23.4c-1.7-1-3-2.4-3.7-4.2c-0.7-1.8-0.9-3.7-0.4-5.6c0.5-1.9,1.6-3.5,3.1-4.7c1.5-1.2,3.4-1.8,5.3-1.8
		c1.9,0,3.8,0.6,5.3,1.8c1.5,1.2,2.6,2.8,3.1,4.7c0.5,1.9,0.4,3.8-0.4,5.6c-0.7,1.8-2,3.3-3.7,4.2l-2.6-4.5c0.7-0.4,1.2-1,1.5-1.7
		c0.3-0.7,0.3-1.5,0.1-2.2c-0.2-0.7-0.6-1.4-1.2-1.9c-0.6-0.5-1.3-0.7-2.1-0.7c-0.8,0-1.5,0.3-2.1,0.7c-0.6,0.5-1,1.1-1.2,1.9
		c-0.2,0.7-0.1,1.5,0.1,2.2c0.3,0.7,0.8,1.3,1.5,1.7L455.5,23.4z"/>
	<path class="st40" d="M474.1,25.5c1.7,1,3,2.4,3.7,4.2c0.7,1.8,0.9,3.7,0.4,5.6c-0.5,1.9-1.6,3.5-3.1,4.7c-1.5,1.2-3.4,1.8-5.3,1.8
		c-1.9,0-3.8-0.6-5.3-1.8s-2.6-2.8-3.1-4.7c-0.5-1.9-0.4-3.8,0.4-5.6c0.7-1.8,2-3.3,3.7-4.2l2.6,4.5c-0.7,0.4-1.2,1-1.5,1.7
		c-0.3,0.7-0.3,1.5-0.1,2.2c0.2,0.7,0.6,1.4,1.2,1.9s1.3,0.7,2.1,0.7c0.8,0,1.5-0.3,2.1-0.7c0.6-0.5,1-1.1,1.2-1.9
		c0.2-0.7,0.1-1.5-0.1-2.2c-0.3-0.7-0.8-1.3-1.5-1.7L474.1,25.5z"/>
	<path class="st41" d="M458.8,33.1c0,1.9-0.6,3.8-1.8,5.3c-1.2,1.5-2.8,2.6-4.7,3.1c-1.9,0.5-3.8,0.4-5.6-0.4
		c-1.8-0.7-3.3-2-4.2-3.7c-1-1.7-1.3-3.6-1.1-5.5c0.3-1.9,1.1-3.7,2.5-5c1.4-1.4,3.1-2.2,5-2.5c1.9-0.3,3.8,0.1,5.5,1.1l-2.6,4.5
		c-0.7-0.4-1.4-0.5-2.2-0.4c-0.8,0.1-1.5,0.4-2,1c-0.5,0.5-0.9,1.2-1,2c-0.1,0.8,0.1,1.5,0.4,2.2c0.4,0.7,1,1.2,1.7,1.5
		c0.7,0.3,1.5,0.3,2.2,0.1c0.7-0.2,1.4-0.6,1.9-1.2c0.5-0.6,0.7-1.3,0.7-2.1H458.8z"/>
	<path class="st0" d="M448,56.2h25.5c6.2,0,11.2,5,11.2,11.2v25.5c0,6.2-5,11.2-11.2,11.2H448c-6.2,0-11.2-5-11.2-11.2V67.4
		C436.8,61.2,441.8,56.2,448,56.2z"/>
	<defs>
		<filter id="Adobe_OpacityMaskFilter" filterUnits="userSpaceOnUse" x="442" y="61.4" width="37.5" height="37.5">
			<feColorMatrix  type="matrix" values="1 0 0 0 0  0 1 0 0 0  0 0 1 0 0  0 0 0 1 0"/>
		</filter>
	</defs>
	
		<mask maskUnits="userSpaceOnUse" x="442" y="61.4" width="37.5" height="37.5" id="mask0_217_156_00000141433663883255809670000006934361108887679908_">
		<path class="st42" d="M448.9,93.1l-6.2-4.7c-0.2-0.1-0.4-0.3-0.5-0.6c-0.1-0.2-0.2-0.5-0.2-0.7V73.1c0-0.2,0.1-0.5,0.2-0.7
			c0.1-0.2,0.3-0.4,0.5-0.6l6.2-4.7c-0.2,0.2-0.3,0.4-0.4,0.6c-0.1,0.2-0.1,0.5-0.1,0.7v23.4c0,0.2,0,0.5,0.1,0.7
			C448.6,92.8,448.7,93,448.9,93.1z"/>
		<path class="st1" d="M478.8,67.9c-0.3-0.2-0.6-0.3-0.9-0.3c-0.2,0-0.4,0-0.6,0.1c-0.2,0.1-0.4,0.2-0.5,0.3l-0.1,0.1l-12.5,12
			l-6.9,6.6l-6.4,6.1l-0.1,0.1c-0.1,0.1-0.3,0.3-0.5,0.3c-0.2,0.1-0.4,0.1-0.6,0.1c-0.3,0-0.7-0.1-0.9-0.3l-6.2-4.7
			c0.3,0.2,0.7,0.3,1.1,0.3c0.4,0,0.8-0.2,1-0.5l6.9-8.1l5.7-6.6l10-11.6c0.1-0.2,0.3-0.3,0.5-0.4c0.2-0.1,0.4-0.1,0.7-0.1
			c0.3,0,0.6,0.1,0.9,0.3L478.8,67.9z"/>
		<path class="st1" d="M478.8,92.4l-9.4,6.2c-0.3,0.2-0.7,0.3-1.1,0.2c-0.4-0.1-0.7-0.2-1-0.5l-10-11.6l-5.7-6.6l-6.9-8
			c-0.3-0.3-0.6-0.5-1-0.5c-0.4,0-0.8,0.1-1.1,0.3l6.2-4.7c0.3-0.2,0.6-0.3,0.9-0.3c0.2,0,0.4,0,0.6,0.1c0.2,0.1,0.4,0.2,0.5,0.3
			l0.1,0.1l6.4,6.1l6.9,6.6l12.5,12l0.1,0.1c0.1,0.1,0.3,0.3,0.5,0.3c0.2,0.1,0.4,0.1,0.6,0.1C478.3,92.7,478.6,92.6,478.8,92.4z"/>
		<path class="st1" d="M479.5,69.2v21.9c0,0.3-0.1,0.5-0.2,0.7c-0.1,0.2-0.3,0.4-0.5,0.6l-9.4,6.2c0.2-0.1,0.4-0.3,0.5-0.6
			c0.1-0.2,0.2-0.5,0.2-0.7V63c0-0.3-0.1-0.5-0.2-0.7s-0.3-0.4-0.5-0.6l9.4,6.2c0.2,0.1,0.4,0.3,0.5,0.6S479.5,69,479.5,69.2z"/>
	</mask>
	<g class="st43">
		<path class="st44" d="M448.9,93.1l-6.2-4.7c-0.2-0.1-0.4-0.3-0.5-0.6c-0.1-0.2-0.2-0.5-0.2-0.7V73.1c0-0.2,0.1-0.5,0.2-0.7
			c0.1-0.2,0.3-0.4,0.5-0.6l6.2-4.7c-0.2,0.2-0.3,0.4-0.4,0.6c-0.1,0.2-0.1,0.5-0.1,0.7v23.4c0,0.2,0,0.5,0.1,0.7
			C448.6,92.8,448.7,93,448.9,93.1z"/>
		<g>
			
				<linearGradient id="SVGID_00000008839371668820174370000013596319125803503494_" gradientUnits="userSpaceOnUse" x1="474.5502" y1="42.5391" x2="446.7068" y2="14.5155" gradientTransform="matrix(1 0 0 -1 0 106)">
				<stop  offset="0" style="stop-color:#7252AA"/>
				<stop  offset="1" style="stop-color:#7252AA"/>
			</linearGradient>
			<path style="fill:url(#SVGID_00000008839371668820174370000013596319125803503494_);" d="M478.8,67.9c-0.3-0.2-0.6-0.3-0.9-0.3
				c-0.2,0-0.4,0-0.6,0.1c-0.2,0.1-0.4,0.2-0.5,0.3l-0.1,0.1l-6.6,6.4l-5.8,5.6l-6.9,6.6l-6.4,6.1l-0.1,0.1
				c-0.1,0.1-0.3,0.3-0.5,0.3c-0.2,0.1-0.4,0.1-0.6,0.1c-0.3,0-0.7-0.1-0.9-0.3l-6.2-4.7c0.3,0.2,0.7,0.3,1.1,0.3
				c0.4,0,0.8-0.2,1-0.5l3.5-4.1l3.4-4l5.7-6.6l10-11.6c0.1-0.2,0.3-0.3,0.5-0.4c0.2-0.1,0.4-0.1,0.7-0.1c0.3,0,0.6,0.1,0.9,0.3
				L478.8,67.9z"/>
		</g>
		<g>
			
				<linearGradient id="SVGID_00000132810303512776616400000006246064820958657669_" gradientUnits="userSpaceOnUse" x1="447.0787" y1="39.1451" x2="473.2483" y2="9.8509" gradientTransform="matrix(1 0 0 -1 0 106)">
				<stop  offset="0" style="stop-color:#AE7FE2"/>
				<stop  offset="1" style="stop-color:#9A70D4"/>
			</linearGradient>
			<path style="fill:url(#SVGID_00000132810303512776616400000006246064820958657669_);" d="M478.8,92.4l-9.4,6.2
				c-0.3,0.2-0.7,0.3-1.1,0.2c-0.4-0.1-0.7-0.2-1-0.5l-10-11.6l-5.7-6.6l-3.4-4l-3.5-4.1c-0.3-0.3-0.6-0.5-1-0.5
				c-0.4,0-0.8,0.1-1.1,0.3l6.2-4.7c0.3-0.2,0.6-0.3,0.9-0.3c0.2,0,0.4,0,0.6,0.1c0.2,0.1,0.4,0.2,0.5,0.3l0.1,0.1l6.4,6.1l6.9,6.6
				l5.8,5.6l6.6,6.4l0.1,0.1c0.1,0.1,0.3,0.3,0.5,0.3c0.2,0.1,0.4,0.1,0.6,0.1C478.3,92.7,478.6,92.6,478.8,92.4z"/>
		</g>
		<g>
			
				<linearGradient id="SVGID_00000180368595197492151220000002168013350298157211_" gradientUnits="userSpaceOnUse" x1="474.4643" y1="45.0923" x2="474.4643" y2="7.3884" gradientTransform="matrix(1 0 0 -1 0 106)">
				<stop  offset="0" style="stop-color:#D59DFF"/>
				<stop  offset="1" style="stop-color:#C18EF1"/>
			</linearGradient>
			<path style="fill:url(#SVGID_00000180368595197492151220000002168013350298157211_);" d="M479.5,69.2v21.9c0,0.3-0.1,0.5-0.2,0.7
				c-0.1,0.2-0.3,0.4-0.5,0.6l-9.4,6.2c0.2-0.1,0.4-0.3,0.5-0.6c0.1-0.2,0.2-0.5,0.2-0.7V63c0-0.3-0.1-0.5-0.2-0.7
				c-0.1-0.2-0.3-0.4-0.5-0.6l9.4,6.2c0.2,0.1,0.4,0.3,0.5,0.6C479.4,68.7,479.5,69,479.5,69.2z"/>
		</g>
	</g>
</g>
<g id="图层_2">
	<path class="st29" d="M11.2,56.7h25.4c6.2,0,11.2,5,11.2,11.2v25.4c0,6.2-5,11.2-11.2,11.2H11.2C5,104.5,0,99.5,0,93.3V67.9
		C0,61.7,5,56.7,11.2,56.7z"/>
	<path class="st30" d="M19.6,85.8h-7.4l-1.5,4.7c0,0.2-0.2,0.3-0.4,0.3H6.6c-0.2,0-0.3-0.1-0.2-0.4l6.4-18.4
		c0.1-0.2,0.1-0.4,0.2-0.6c0.1-0.4,0.1-0.9,0.1-1.3c0-0.1,0.1-0.2,0.2-0.2h0.1h5.1c0.1,0,0.2,0.1,0.3,0.2l7.3,20.3
		c0.1,0.2,0,0.3-0.2,0.3h-4.2c-0.1,0-0.3-0.1-0.3-0.2L19.6,85.8L19.6,85.8z M13.4,81.9h5.1c-0.1-0.4-0.3-0.9-0.5-1.4
		c-0.2-0.5-0.4-1.1-0.5-1.7c-0.2-0.6-0.4-1.2-0.6-1.8c-0.2-0.6-0.4-1.2-0.5-1.8c-0.2-0.6-0.3-1.1-0.4-1.6h0
		c-0.2,0.9-0.4,1.7-0.7,2.6c-0.3,1-0.6,2-0.9,2.9C14,80.1,13.7,81,13.4,81.9L13.4,81.9z"/>
	<path class="st30" d="M37.7,84.1h-6.3c0.1,0.6,0.3,1.2,0.6,1.8c0.4,0.5,0.9,1,1.5,1.2c0.8,0.3,1.7,0.5,2.5,0.5
		c0.7,0,1.4-0.1,2.1-0.2c0.6-0.1,1.2-0.2,1.8-0.5c0.1-0.1,0.2,0,0.2,0.2v3c0,0.1,0,0.2,0,0.2c0,0.1-0.1,0.1-0.1,0.1
		c-0.6,0.3-1.3,0.5-2,0.6c-0.9,0.2-1.9,0.3-2.8,0.2c-1.5,0-2.8-0.2-3.8-0.7c-1-0.4-1.8-1.1-2.5-1.9c-0.6-0.8-1.1-1.7-1.4-2.6
		c-0.3-0.9-0.4-1.9-0.4-2.9c0-1.1,0.2-2.1,0.5-3.2c0.3-1,0.8-1.9,1.5-2.7c0.7-0.8,1.5-1.4,2.4-1.9c0.9-0.5,2.1-0.6,3.3-0.6
		c1.1,0,2.1,0.2,3.1,0.6c0.8,0.4,1.5,0.9,2.1,1.6c0.5,0.7,0.9,1.4,1.2,2.3c0.3,0.8,0.4,1.6,0.4,2.4c0,0.5,0,0.9,0,1.3
		c0,0.4-0.1,0.7-0.1,0.8c0,0.1-0.1,0.3-0.3,0.3c-0.1,0-0.3,0-0.7,0c-0.3,0-0.7,0.1-1.2,0.1C38.7,84.1,38.2,84.1,37.7,84.1L37.7,84.1
		z M31.3,81.1h4.2c0.5,0,0.9,0,1.1,0c0.2,0,0.3-0.1,0.5-0.2v-0.2c0-0.3,0-0.5-0.1-0.7c-0.4-1.1-1.4-1.9-2.6-1.8
		c-1.1-0.1-2.1,0.5-2.6,1.5C31.5,80.2,31.4,80.7,31.3,81.1z"/>
</g>
</svg>
